<svg xmlns="http://www.w3.org/2000/svg" xml:lang="en" height="210.64000000000001pt" width="1191.575425pt" viewBox="-13.339999999999998 -108.19999999999999 1191.575425 210.64000000000001"><polygon points="0.0,-0.0 8.1,-32.4 105.3,-32.4 89.1,32.4 -8.1,32.4 " style="stroke:black;fill:none;stroke-width:2.0;stroke-linecap:round;stroke-linejoin:round;" /><path d="M 97.19999999999999,-0.0 L 129.6,-0.0 L 153.9,-0.0" style="stroke:black;fill:none;stroke-width:2.0;stroke-linecap:round;stroke-linejoin:round;" /><path d="M 160.0 0.0 L 153.89999999999998 2.4299999999999997 L 153.89999999999998 -2.4299999999999997 Z" style="stroke:black;fill:black;stroke-linecap:butt;stroke-linejoin:miter;" /><path d="M 162.0,-0.0 L 162.0,-32.4 L 259.2,-32.4 L 259.2,32.4 L 162.0,32.4 L 162.0,-0.0" style="stroke:black;fill:none;stroke-width:2.0;stroke-linecap:round;stroke-linejoin:round;" /><path d="M 259.2,-0.0 L 291.59999999999997,-0.0 L 315.9,-0.0" style="stroke:black;fill:none;stroke-width:2.0;stroke-linecap:round;stroke-linejoin:round;" /><path d="M 322.0 0.0 L 315.9 2.4299999999999997 L 315.9 -2.4299999999999997 Z" style="stroke:black;fill:black;stroke-linecap:butt;stroke-linejoin:miter;" /><path d="M 324.0,-0.0 L 324.0,-32.4 L 421.2,-32.4 L 421.2,32.4 L 324.0,32.4 L 324.0,-0.0" style="stroke:black;fill:none;stroke-width:2.0;stroke-linecap:round;stroke-linejoin:round;" /><path d="M 421.2,-0.0 L 453.59999999999997,-0.0 L 477.9,-0.0" style="stroke:black;fill:none;stroke-width:2.0;stroke-linecap:round;stroke-linejoin:round;" /><path d="M 484.0 0.0 L 477.9 2.4299999999999997 L 477.9 -2.4299999999999997 Z" style="stroke:black;fill:black;stroke-linecap:butt;stroke-linejoin:miter;" /><path d="M 486.0,-0.0 L 486.0,-32.4 L 583.1999999999999,-32.4 L 583.1999999999999,32.4 L 486.0,32.4 L 486.0,-0.0" style="stroke:black;fill:none;stroke-width:2.0;stroke-linecap:round;stroke-linejoin:round;" /><path d="M 348.3,-32.4 L 348.3499269561668,-33.95690634553133 L 348.49950266409513,-35.5074150289335 L 348.7481124851171,-37.04515467744335 L 349.09473482815156,-38.56380638900103 L 349.53794534764074,-40.057129697973984 L 350.0759227964917,-41.518988218568786 L 350.7064565099712,-42.94337486055666 L 351.4269554898016,-44.32443651369569 L 352.2344590511283,-45.656498099416325 L 353.12564898860865,-46.93408589093655 L 354.09686321163,-48.15195000597926 L 355.1441107926252,-49.305085979664725 L 356.26308836665,-50.388755328930166 L 357.44919781483276,-51.39850502397312 L 358.6975651590313,-52.330185786706025 L 360.00306059005425,-53.17996914102991 L 361.36031954714764,-53.9443631448639 L 362.7637647621258,-54.62022673928424 L 364.2076291775622,-55.20478265580917 L 365.6859796448659,-55.69562882879085 L 367.19274130486156,-56.090748266018316 L 368.72172255068887,-56.388517336971134 L 370.26664047044335,-56.58771244466551 L 371.82114666500877,-56.68751505367671 L 373.3788533349912,-56.68751505367671 L 374.93335952955664,-56.58771244466551 L 376.47827744931107,-56.388517336971134 L 378.00725869513843,-56.090748266018316 L 379.5140203551341,-55.69562882879085 L 380.99237082243775,-55.204782655809176 L 382.43623523787414,-54.62022673928424 L 383.8396804528523,-53.9443631448639 L 385.19693940994574,-53.17996914102991 L 386.5024348409687,-52.33018578670603 L 387.75080218516723,-51.39850502397312 L 388.93691163334995,-50.38875532893017 L 390.0558892073748,-49.30508597966472 L 391.10313678836997,-48.15195000597926 L 392.0743510113913,-46.93408589093655 L 392.9655409488717,-45.65649809941634 L 393.77304451019836,-44.324436513695694 L 394.49354349002874,-42.94337486055666 L 395.1240772035083,-41.51898821856879 L 395.6620546523592,-40.057129697973984 L 396.1052651718484,-38.56380638900104 L 396.45188751488286,-37.04515467744335 L 396.70049733590486,-35.50741502893351 L 396.85007304383316,-33.95690634553133 L 396.64038222166954,-40.495838351225565" style="stroke:black;fill:none;stroke-width:2;stroke-linecap:round;stroke-linejoin:round;" /><path d="M 396.8358968448567 -34.39897243240137 L 393.40204688117933 -40.39199123989339 L 399.8787175621598 -40.59968546255774 Z" style="stroke:black;fill:black;stroke-linecap:butt;stroke-linejoin:miter;" /><path d="M 534.6,-32.4 L 534.6,-64.8 L 591.3,-64.8" style="stroke:black;fill:none;stroke-width:2;stroke-linecap:round;stroke-linejoin:round;" /><path d="M 597.4 -64.8 L 591.3000000000001 -62.37 L 591.3000000000001 -67.22999999999999 Z" style="stroke:black;fill:black;stroke-linecap:butt;stroke-linejoin:miter;" /><path d="M 599.4,-64.8 L 599.4,-97.19999999999999 L 696.6,-97.19999999999999 L 696.6,-32.4 L 599.4,-32.4 L 599.4,-64.8" style="stroke:black;fill:none;stroke-width:2.0;stroke-linecap:round;stroke-linejoin:round;" /><path d="M 534.6,32.4 L 534.6,64.8 L 591.3,64.8" style="stroke:black;fill:none;stroke-width:2;stroke-linecap:round;stroke-linejoin:round;" /><path d="M 597.4 64.8 L 591.3000000000001 67.22999999999999 L 591.3000000000001 62.37 Z" style="stroke:black;fill:black;stroke-linecap:butt;stroke-linejoin:miter;" /><path d="M 599.4,64.8 L 599.4,32.4 L 696.6,32.4 L 696.6,97.19999999999999 L 599.4,97.19999999999999 L 599.4,64.8" style="stroke:black;fill:none;stroke-width:2.0;stroke-linecap:round;stroke-linejoin:round;" /><path d="M 696.6,64.8 L 729.0,64.8 L 729.0,-0.0" style="stroke:black;fill:none;stroke-width:2;stroke-linecap:round;stroke-linejoin:round;" /><path d="M 696.6,-64.8 L 729.0,-64.8 L 729.0,-0.0" style="stroke:black;fill:none;stroke-width:2;stroke-linecap:round;stroke-linejoin:round;" /><path d="M 729.0,-0.0 L 761.4,-0.0 L 785.6999999999999,-0.0" style="stroke:black;fill:none;stroke-width:2.0;stroke-linecap:round;stroke-linejoin:round;" /><path d="M 791.8 0.0 L 785.7 2.4299999999999997 L 785.7 -2.4299999999999997 Z" style="stroke:black;fill:black;stroke-linecap:butt;stroke-linejoin:miter;" /><path d="M 793.8,-0.0 L 793.8,-32.4 L 922.3510499999999,-32.4 L 922.3510499999999,32.4 L 793.8,32.4 L 793.8,-0.0" style="stroke:black;fill:none;stroke-width:2.0;stroke-linecap:round;stroke-linejoin:round;" /><path d="M 922.3510499999999,-0.0 L 954.7510499999999,-0.0 L 979.0510499999999,-0.0" style="stroke:black;fill:none;stroke-width:2.0;stroke-linecap:round;stroke-linejoin:round;" /><path d="M 985.1510499999999 0.0 L 979.05105 2.4299999999999997 L 979.05105 -2.4299999999999997 Z" style="stroke:black;fill:black;stroke-linecap:butt;stroke-linejoin:miter;" /><path d="M 987.1510499999999,-0.0 L 987.1510499999999,-32.4 L 1121.9958,-32.4 L 1121.9958,32.4 L 987.1510499999999,32.4 L 987.1510499999999,-0.0" style="stroke:black;fill:none;stroke-width:2.0;stroke-linecap:round;stroke-linejoin:round;" /><text x="48.599999999999994" y="-7.7" fill="black" font-size="14.0" font-family="sans" text-anchor="middle" transform="rotate(0 48.599999999999994 -2.0999999999999996)"><tspan x="48.599999999999994" dy="11.200000000000001">Constellate</tspan></text><text x="129.6" y="-17.6" fill="black" font-size="10" font-family="sans" text-anchor="middle" transform="rotate(0 129.6 -9.6)"><tspan x="129.6" dy="8.0">wrangler.py</tspan></text><text x="210.6" y="-16.1" fill="black" font-size="14.0" font-family="sans" text-anchor="middle" transform="rotate(0 210.6 -2.0999999999999996)"><tspan x="210.6" dy="14.0">Cleaned</tspan><tspan x="210.6" dy="14.0">docs</tspan></text><text x="291.59999999999997" y="-17.6" fill="black" font-size="10" font-family="sans" text-anchor="middle" transform="rotate(0 291.59999999999997 -9.6)"><tspan x="291.59999999999997" dy="8.0">subsetter.py</tspan></text><text x="372.59999999999997" y="-16.1" fill="black" font-size="14.0" font-family="sans" text-anchor="middle" transform="rotate(0 372.59999999999997 -2.0999999999999996)"><tspan x="372.59999999999997" dy="14.0">Subsetted</tspan><tspan x="372.59999999999997" dy="14.0">docs</tspan></text><text x="453.59999999999997" y="-17.6" fill="black" font-size="10" font-family="sans" text-anchor="middle" transform="rotate(0 453.59999999999997 -9.6)"><tspan x="453.59999999999997" dy="8.0">sentencizer.py</tspan></text><text x="534.6" y="-7.7" fill="black" font-size="14.0" font-family="sans" text-anchor="middle" transform="rotate(0 534.6 -2.0999999999999996)"><tspan x="534.6" dy="11.200000000000001">Sentences</tspan></text><text x="373.3788533349912" y="-69.42751505367671" fill="black" font-size="10" font-family="sans" text-anchor="middle" transform="rotate(0 373.3788533349912 -61.427515053676714)"><tspan x="373.3788533349912" dy="8.0">citations_detector.py</tspan></text><text x="567.0" y="-77.54" fill="black" font-size="10" font-family="sans" text-anchor="middle" transform="rotate(0 567.0 -69.54)"><tspan x="567.0" dy="8.0">srl.py</tspan></text><text x="648.0" y="-80.9" fill="black" font-size="14.0" font-family="sans" text-anchor="middle" transform="rotate(0 648.0 -66.9)"><tspan x="648.0" dy="14.0">Raw atomic</tspan><tspan x="648.0" dy="14.0">propositions</tspan></text><text x="567.0" y="66.54" fill="black" font-size="10" font-family="sans" text-anchor="middle" transform="rotate(0 567.0 66.54)"><tspan x="567.0" dy="8.0">dp.py</tspan></text><text x="648.0" y="48.69999999999999" fill="black" font-size="14.0" font-family="sans" text-anchor="middle" transform="rotate(0 648.0 62.699999999999996)"><tspan x="648.0" dy="14.0">Dependency</tspan><tspan x="648.0" dy="14.0">parses</tspan></text><text x="761.4" y="-17.6" fill="black" font-size="10" font-family="sans" text-anchor="middle" transform="rotate(0 761.4 -9.6)"><tspan x="761.4" dy="8.0">annotator.py</tspan></text><text x="858.075525" y="-16.1" fill="black" font-size="14.0" font-family="sans" text-anchor="middle" transform="rotate(0 858.075525 -2.0999999999999996)"><tspan x="858.075525" dy="14.0">Annotated atomic</tspan><tspan x="858.075525" dy="14.0">propositions</tspan></text><text x="954.7510499999999" y="-17.6" fill="black" font-size="10" font-family="sans" text-anchor="middle" transform="rotate(0 954.7510499999999 -9.6)"><tspan x="954.7510499999999" dy="8.0">clusterer.py</tspan></text><text x="1054.5734249999998" y="-16.1" fill="black" font-size="14.0" font-family="sans" text-anchor="middle" transform="rotate(0 1054.5734249999998 -2.0999999999999996)"><tspan x="1054.5734249999998" dy="14.0">Atomic proposition</tspan><tspan x="1054.5734249999998" dy="14.0">clusters</tspan></text></svg>