<svg xmlns="http://www.w3.org/2000/svg" xml:lang="en" height="204.88pt" width="1173.936244pt" viewBox="-13.339999999999998 -102.44 1173.936244 204.88"><polygon points="0.0,-0.0 8.1,-32.4 105.3,-32.4 89.1,32.4 -8.1,32.4 " style="stroke:black;fill:none;stroke-width:2.0;stroke-linecap:round;stroke-linejoin:round;" /><path d="M 97.19999999999999,-0.0 L 129.6,-0.0 L 153.9,-0.0" style="stroke:black;fill:none;stroke-width:2.0;stroke-linecap:round;stroke-linejoin:round;" /><path d="M 160.0 0.0 L 153.89999999999998 2.4299999999999997 L 153.89999999999998 -2.4299999999999997 Z" style="stroke:black;fill:black;stroke-linecap:butt;stroke-linejoin:miter;" /><path d="M 162.0,-0.0 L 162.0,-32.4 L 265.03605,-32.4 L 265.03605,32.4 L 162.0,32.4 L 162.0,-0.0" style="stroke:black;fill:none;stroke-width:2.0;stroke-linecap:round;stroke-linejoin:round;" /><path d="M 265.03605,-0.0 L 297.43605,-0.0 L 321.73605,-0.0" style="stroke:black;fill:none;stroke-width:2.0;stroke-linecap:round;stroke-linejoin:round;" /><path d="M 327.83605 0.0 L 321.73605 2.4299999999999997 L 321.73605 -2.4299999999999997 Z" style="stroke:black;fill:black;stroke-linecap:butt;stroke-linejoin:miter;" /><path d="M 329.83605,-0.0 L 329.83605,-32.4 L 445.4595,-32.4 L 445.4595,32.4 L 329.83605,32.4 L 329.83605,-0.0" style="stroke:black;fill:none;stroke-width:2.0;stroke-linecap:round;stroke-linejoin:round;" /><path d="M 445.4595,-0.0 L 477.8595,-0.0 L 502.15950000000004,-0.0" style="stroke:black;fill:none;stroke-width:2.0;stroke-linecap:round;stroke-linejoin:round;" /><path d="M 508.2595 0.0 L 502.1595 2.4299999999999997 L 502.1595 -2.4299999999999997 Z" style="stroke:black;fill:black;stroke-linecap:butt;stroke-linejoin:miter;" /><path d="M 510.2595,-0.0 L 510.2595,-32.4 L 607.4595,-32.4 L 607.4595,32.4 L 510.2595,32.4 L 510.2595,-0.0" style="stroke:black;fill:none;stroke-width:2.0;stroke-linecap:round;stroke-linejoin:round;" /><path d="M 558.8595,-32.4 L 558.8595,-64.8 L 615.5595,-64.8" style="stroke:black;fill:none;stroke-width:2;stroke-linecap:round;stroke-linejoin:round;" /><path d="M 621.6595 -64.8 L 615.5595000000001 -62.37 L 615.5595000000001 -67.22999999999999 Z" style="stroke:black;fill:black;stroke-linecap:butt;stroke-linejoin:miter;" /><path d="M 623.6595,-64.8 L 623.6595,-97.19999999999999 L 739.28295,-97.19999999999999 L 739.28295,-32.4 L 623.6595,-32.4 L 623.6595,-64.8" style="stroke:black;fill:none;stroke-width:2.0;stroke-linecap:round;stroke-linejoin:round;" /><path d="M 558.8595,32.4 L 558.8595,64.8 L 624.771144,64.8" style="stroke:black;fill:none;stroke-width:2;stroke-linecap:round;stroke-linejoin:round;" /><path d="M 630.8711440000001 64.8 L 624.7711440000002 67.22999999999999 L 624.7711440000002 62.37 Z" style="stroke:black;fill:black;stroke-linecap:butt;stroke-linejoin:miter;" /><path d="M 632.8711440000001,64.8 L 632.8711440000001,32.4 L 730.071144,32.4 L 730.071144,97.19999999999999 L 632.8711440000001,97.19999999999999 L 632.8711440000001,64.8" style="stroke:black;fill:none;stroke-width:2.0;stroke-linecap:round;stroke-linejoin:round;" /><path d="M 730.071144,64.8 L 762.4711440000001,64.8 L 762.4711440000001,-0.0" style="stroke:black;fill:none;stroke-width:2;stroke-linecap:round;stroke-linejoin:round;" /><path d="M 739.28295,-64.8 L 762.4711440000001,-64.8 L 762.4711440000001,-0.0" style="stroke:black;fill:none;stroke-width:2;stroke-linecap:round;stroke-linejoin:round;" /><path d="M 762.4711440000001,-0.0 L 794.8711440000001,-0.0 L 819.171144,-0.0" style="stroke:black;fill:none;stroke-width:2.0;stroke-linecap:round;stroke-linejoin:round;" /><path d="M 825.271144 0.0 L 819.1711440000001 2.4299999999999997 L 819.1711440000001 -2.4299999999999997 Z" style="stroke:black;fill:black;stroke-linecap:butt;stroke-linejoin:miter;" /><path d="M 827.271144,-0.0 L 827.271144,-32.4 L 941.448744,-32.4 L 941.448744,32.4 L 827.271144,32.4 L 827.271144,-0.0" style="stroke:black;fill:none;stroke-width:2.0;stroke-linecap:round;stroke-linejoin:round;" /><path d="M 941.448744,-0.0 L 973.8487440000001,-0.0 L 998.1487440000001,-0.0" style="stroke:black;fill:none;stroke-width:2.0;stroke-linecap:round;stroke-linejoin:round;" /><path d="M 1004.2487440000001 0.0 L 998.1487440000002 2.4299999999999997 L 998.1487440000002 -2.4299999999999997 Z" style="stroke:black;fill:black;stroke-linecap:butt;stroke-linejoin:miter;" /><path d="M 1006.2487440000001,-0.0 L 1006.2487440000001,-32.4 L 1114.642944,-32.4 L 1114.642944,32.4 L 1006.2487440000001,32.4 L 1006.2487440000001,-0.0" style="stroke:black;fill:none;stroke-width:2.0;stroke-linecap:round;stroke-linejoin:round;" /><text x="48.599999999999994" y="-7.7" fill="black" font-size="14.0" font-family="sans" text-anchor="middle" transform="rotate(0 48.599999999999994 -2.0999999999999996)"><tspan x="48.599999999999994" dy="11.200000000000001">Constellate</tspan></text><text x="129.6" y="-17.6" fill="black" font-size="10" font-family="sans" text-anchor="middle" transform="rotate(0 129.6 -9.6)"><tspan x="129.6" dy="8.0">cleaner.py</tspan></text><text x="213.518025" y="-7.7" fill="black" font-size="14.0" font-family="sans" text-anchor="middle" transform="rotate(0 213.518025 -2.0999999999999996)"><tspan x="213.518025" dy="11.200000000000001">Cleaned docs</tspan></text><text x="297.43605" y="-17.6" fill="black" font-size="10" font-family="sans" text-anchor="middle" transform="rotate(0 297.43605 -9.6)"><tspan x="297.43605" dy="8.0">subsetter.py</tspan></text><text x="387.647775" y="-7.7" fill="black" font-size="14.0" font-family="sans" text-anchor="middle" transform="rotate(0 387.647775 -2.0999999999999996)"><tspan x="387.647775" dy="11.200000000000001">Subsetted docs</tspan></text><text x="477.8595" y="-17.6" fill="black" font-size="10" font-family="sans" text-anchor="middle" transform="rotate(0 477.8595 -9.6)"><tspan x="477.8595" dy="8.0">sentencizer.py</tspan></text><text x="558.8595" y="-7.7" fill="black" font-size="14.0" font-family="sans" text-anchor="middle" transform="rotate(0 558.8595 -2.0999999999999996)"><tspan x="558.8595" dy="11.200000000000001">Sentences</tspan></text><text x="591.2595" y="-77.54" fill="black" font-size="10" font-family="sans" text-anchor="middle" transform="rotate(0 591.2595 -69.54)"><tspan x="591.2595" dy="8.0">srl.py</tspan></text><text x="681.471225" y="-72.5" fill="black" font-size="14.0" font-family="sans" text-anchor="middle" transform="rotate(0 681.471225 -66.9)"><tspan x="681.471225" dy="11.200000000000001">Protonarratives</tspan></text><text x="595.8653220000001" y="66.54" fill="black" font-size="10" font-family="sans" text-anchor="middle" transform="rotate(0 595.8653220000001 66.54)"><tspan x="595.8653220000001" dy="8.0">dp.py</tspan></text><text x="681.4711440000001" y="48.69999999999999" fill="black" font-size="14.0" font-family="sans" text-anchor="middle" transform="rotate(0 681.4711440000001 62.699999999999996)"><tspan x="681.4711440000001" dy="14.0">Dependency</tspan><tspan x="681.4711440000001" dy="14.0">parses</tspan></text><text x="794.8711440000001" y="-17.6" fill="black" font-size="10" font-family="sans" text-anchor="middle" transform="rotate(0 794.8711440000001 -9.6)"><tspan x="794.8711440000001" dy="8.0">annotator.py</tspan></text><text x="884.359944" y="-16.1" fill="black" font-size="14.0" font-family="sans" text-anchor="middle" transform="rotate(0 884.359944 -2.0999999999999996)"><tspan x="884.359944" dy="14.0">Annotated</tspan><tspan x="884.359944" dy="14.0">protonarratives</tspan></text><text x="973.8487440000001" y="-17.6" fill="black" font-size="10" font-family="sans" text-anchor="middle" transform="rotate(0 973.8487440000001 -9.6)"><tspan x="973.8487440000001" dy="8.0">clusterer.py</tspan></text><text x="1060.445844" y="-16.1" fill="black" font-size="14.0" font-family="sans" text-anchor="middle" transform="rotate(0 1060.445844 -2.0999999999999996)"><tspan x="1060.445844" dy="14.0">Protonarrative</tspan><tspan x="1060.445844" dy="14.0">clusters</tspan></text></svg>