<svg xmlns="http://www.w3.org/2000/svg" xml:lang="en" height="130.20703240065444pt" width="640.96915pt" viewBox="-5.24 -92.56703240065444 640.96915 130.20703240065444"><path d="M 0.0,-0.0 L 0.0,-32.4 L 97.19999999999999,-32.4 L 97.19999999999999,32.4 L 0.0,32.4 L 0.0,-0.0" style="stroke:white;fill:none;stroke-width:2.0;stroke-linecap:round;stroke-linejoin:round;" /><path d="M 97.19999999999999,-0.0 L 129.6,-0.0 L 153.9,-0.0" style="stroke:white;fill:none;stroke-width:2.0;stroke-linecap:round;stroke-linejoin:round;" /><path d="M 160.0 0.0 L 153.89999999999998 2.4299999999999997 L 153.89999999999998 -2.4299999999999997 Z" style="stroke:white;fill:white;stroke-linecap:butt;stroke-linejoin:miter;" /><path d="M 162.0,-0.0 L 162.0,-32.4 L 259.2,-32.4 L 259.2,32.4 L 162.0,32.4 L 162.0,-0.0" style="stroke:white;fill:none;stroke-width:2.0;stroke-linecap:round;stroke-linejoin:round;" /><path d="M 259.2,-0.0 L 291.59999999999997,-0.0 L 315.9,-0.0" style="stroke:white;fill:none;stroke-width:2.0;stroke-linecap:round;stroke-linejoin:round;" /><path d="M 322.0 0.0 L 315.9 2.4299999999999997 L 315.9 -2.4299999999999997 Z" style="stroke:white;fill:white;stroke-linecap:butt;stroke-linejoin:miter;" /><path d="M 324.0,-0.0 L 324.0,-32.4 L 432.98955,-32.4 L 432.98955,32.4 L 324.0,32.4 L 324.0,-0.0" style="stroke:white;fill:none;stroke-width:2.0;stroke-linecap:round;stroke-linejoin:round;" /><path d="M 432.98955,-0.0 L 465.38955,-0.0 L 489.68955,-0.0" style="stroke:white;fill:none;stroke-width:2.0;stroke-linecap:round;stroke-linejoin:round;" /><path d="M 495.78954999999996 0.0 L 489.68954999999994 2.4299999999999997 L 489.68954999999994 -2.4299999999999997 Z" style="stroke:white;fill:white;stroke-linecap:butt;stroke-linejoin:miter;" /><path d="M 497.78954999999996,-0.0 L 497.78954999999996,-32.4 L 594.98955,-32.4 L 594.98955,32.4 L 497.78954999999996,32.4 L 497.78954999999996,-0.0" style="stroke:white;fill:none;stroke-width:2.0;stroke-linecap:round;stroke-linejoin:round;" /><path d="M 351.2473875,-32.400000000000006 L 351.0339251158064,-34.31747037966775 L 350.95523255925934,-36.24518050515675 L 351.0116960304337,-38.17366973841467 L 351.20303842311074,-40.09347361775583 L 351.528320684734,-41.99517030667393 L 351.98594642500535,-43.86942683346257 L 352.57366975050184,-45.70704489471363 L 353.28860628686454,-47.49900599790268 L 354.12724733446504,-49.236515721515275 L 355.0854770880781,-50.911046875498194 L 356.1585928360512,-52.514381350216716 L 357.3413280398391,-54.03865044853553 L 358.62787818063634,-55.47637350308511 L 360.01192924625957,-56.82049458919152 L 361.4866887184745,-58.06441715329308 L 363.04491890869076,-59.20203638689783 L 364.67897247842257,-60.22776918719988 L 366.38082997019194,-61.13658155731673 L 368.1421391646824,-61.92401331167506 L 369.9542560709917,-62.586199965298455 L 371.8082873488127,-63.11989169957039 L 373.6951339543498,-63.522469311394545 L 375.6055357957668,-63.79195706747829 L 377.53011717901256,-63.92703240065445 L 379.4594328209874,-63.92703240065445 L 381.38401420423315,-63.79195706747829 L 383.29441604565017,-63.522469311394545 L 385.1812626511873,-63.11989169957039 L 387.0352939290083,-62.586199965298455 L 388.84741083531753,-61.92401331167506 L 390.60872002980807,-61.13658155731672 L 392.3105775215774,-60.227769187199875 L 393.9446310913092,-59.202036386897824 L 395.50286128152544,-58.06441715329307 L 396.9776207537404,-56.82049458919152 L 398.36167181936366,-55.4763735030851 L 399.6482219601609,-54.03865044853551 L 400.83095716394877,-52.514381350216716 L 401.90407291192184,-50.91104687549818 L 402.8623026655349,-49.23651572151526 L 403.7009437131355,-47.499005997902664 L 404.4158802494981,-45.70704489471362 L 405.0036035749946,-43.86942683346256 L 405.461229315266,-41.99517030667391 L 405.78651157688927,-40.09347361775582 L 405.9778539695663,-38.17366973841467 L 406.03431744074067,-36.24518050515674 L 405.9556248841936,-34.317470379667725 L 406.6383586818742,-40.450269088893485" style="stroke:white;fill:none;stroke-width:2;stroke-linecap:round;stroke-linejoin:round;" /><path d="M 405.9634455078702 -34.38772076268974 L 403.4182510463168 -40.80874756164316 L 409.8584663174316 -40.091790616143804 Z" style="stroke:white;fill:white;stroke-linecap:butt;stroke-linejoin:miter;" /><text x="48.599999999999994" y="-7.7" fill="white" font-size="14.0" font-family="sans" text-anchor="middle" transform="rotate(0 48.599999999999994 -2.0999999999999996)"><tspan x="48.599999999999994" dy="11.200000000000001">Sentences</tspan></text><text x="129.6" y="-17.6" fill="white" font-size="10" font-family="sans" text-anchor="middle" transform="rotate(0 129.6 -9.6)"><tspan x="129.6" dy="8.0">srl.py</tspan></text><text x="210.6" y="-16.1" fill="white" font-size="14.0" font-family="sans" text-anchor="middle" transform="rotate(0 210.6 -2.0999999999999996)"><tspan x="210.6" dy="14.0">Verbs +</tspan><tspan x="210.6" dy="14.0">raw roles</tspan></text><text x="291.59999999999997" y="-29.6" fill="white" font-size="10" font-family="sans" text-anchor="middle" transform="rotate(0 291.59999999999997 -9.6)"><tspan x="291.59999999999997" dy="10">srl_</tspan><tspan x="291.59999999999997" dy="10">annotator.py</tspan></text><text x="378.494775" y="-16.1" fill="white" font-size="14.0" font-family="sans" text-anchor="middle" transform="rotate(0 378.494775 -2.0999999999999996)"><tspan x="378.494775" dy="14.0">Annotated</tspan><tspan x="378.494775" dy="14.0">semantic roles</tspan></text><text x="465.38955" y="-29.6" fill="white" font-size="10" font-family="sans" text-anchor="middle" transform="rotate(0 465.38955 -9.6)"><tspan x="465.38955" dy="10">proposition_</tspan><tspan x="465.38955" dy="10">identifier.py</tspan></text><text x="546.38955" y="-7.7" fill="white" font-size="14.0" font-family="sans" text-anchor="middle" transform="rotate(0 546.38955 -2.0999999999999996)"><tspan x="546.38955" dy="11.200000000000001">Propositions</tspan></text><text x="379.4594328209874" y="-76.66703240065445" fill="white" font-size="10" font-family="sans" text-anchor="middle" transform="rotate(0 379.4594328209874 -68.66703240065445)"><tspan x="379.4594328209874" dy="8.0">wsd.py</tspan></text></svg>